<svg width="1280" height="720" viewBox="0 0 1280 720" fill="none" xmlns="http://www.w3.org/2000/svg">
<rect width="1280" height="720" fill="#FAF4ED"/>
<g filter="url(#filter0_d_1_7)">
<path d="M540 384C540 379.582 543.582 376 548 376H732C736.418 376 740 379.582 740 384V433C740 437.418 736.418 441 732 441H548C543.582 441 540 437.418 540 433V384Z" fill="#FFFAF3"/>
<path d="M548 378H732C735.314 378 738 380.686 738 384V433C738 436.314 735.314 439 732 439H548C544.686 439 542 436.314 542 433V384C542 380.686 544.686 378 548 378Z" stroke="#524F67" stroke-width="4" stroke-linejoin="round"/>
</g>
<path d="M613.691 407.24C613.691 410.333 613.238 412.947 612.331 415.08C611.451 417.187 609.998 418.8 607.971 419.92C609.945 420.32 611.478 421.013 612.571 422C613.691 422.987 614.585 424.48 615.251 426.48L611.571 427.92C610.665 425.653 609.598 424 608.371 422.96C607.145 421.92 605.398 421.4 603.131 421.4C601.051 421.4 599.278 420.827 597.811 419.68C596.345 418.507 595.225 416.867 594.451 414.76C593.705 412.627 593.331 410.133 593.331 407.28C593.331 404.48 593.718 402 594.491 399.84C595.265 397.68 596.411 396 597.931 394.8C599.478 393.6 601.345 393 603.531 393C606.785 393 609.291 394.293 611.051 396.88C612.811 399.44 613.691 402.893 613.691 407.24ZM610.051 407.24C610.051 403.48 609.531 400.653 608.491 398.76C607.451 396.867 605.798 395.92 603.531 395.92C601.265 395.92 599.598 396.88 598.531 398.8C597.491 400.693 596.971 403.52 596.971 407.28C596.971 411.013 597.505 413.827 598.571 415.72C599.638 417.587 601.291 418.52 603.531 418.52C605.798 418.52 607.451 417.587 608.491 415.72C609.531 413.827 610.051 411 610.051 407.24ZM622.876 414.88C622.876 416.24 623.156 417.24 623.716 417.88C624.302 418.493 625.209 418.8 626.436 418.8C627.556 418.8 628.636 418.48 629.676 417.84C630.716 417.2 631.542 416.4 632.156 415.44V399.92H635.516V421H632.636L632.356 418.16C631.529 419.2 630.502 420.013 629.276 420.6C628.076 421.16 626.849 421.44 625.596 421.44C623.596 421.44 622.076 420.907 621.036 419.84C620.022 418.773 619.516 417.24 619.516 415.24V399.92H622.876V414.88ZM651.5 390.08C652.247 390.08 652.847 390.307 653.3 390.76C653.753 391.187 653.98 391.747 653.98 392.44C653.98 393.133 653.753 393.707 653.3 394.16C652.847 394.587 652.247 394.8 651.5 394.8C650.78 394.8 650.193 394.587 649.74 394.16C649.313 393.707 649.1 393.133 649.1 392.44C649.1 391.747 649.313 391.187 649.74 390.76C650.193 390.307 650.78 390.08 651.5 390.08ZM654.18 418.32H660.1V421H644.34V418.32H650.82V402.6H644.54V399.92H654.18V418.32ZM684.244 419.92C683.524 420.4 682.644 420.773 681.604 421.04C680.591 421.307 679.578 421.44 678.564 421.44C676.351 421.44 674.618 420.867 673.364 419.72C672.111 418.547 671.484 417.013 671.484 415.12V402.56H666.644V399.92H671.484V395.16L674.844 394.76V399.92H682.164L681.724 402.56H674.844V415.08C674.844 416.28 675.164 417.173 675.804 417.76C676.444 418.347 677.471 418.64 678.884 418.64C680.324 418.64 681.671 418.307 682.924 417.64L684.244 419.92Z" fill="#575279"/>
<g filter="url(#filter1_d_1_7)">
<path d="M540 287C540 282.582 543.582 279 548 279H732C736.418 279 740 282.582 740 287V336C740 340.418 736.418 344 732 344H548C543.582 344 540 340.418 540 336V287Z" fill="#FFFAF3"/>
<path d="M548 281H732C735.314 281 738 283.686 738 287V336C738 339.314 735.314 342 732 342H548C544.686 342 542 339.314 542 336V287C542 283.686 544.686 281 548 281Z" stroke="#524F67" stroke-width="4" stroke-linejoin="round"/>
</g>
<path d="M613.811 304.92C613.811 307.987 612.865 310.227 610.971 311.64C609.078 313.053 606.478 313.76 603.171 313.76H599.611V324H596.171V296.44H603.171C606.558 296.44 609.171 297.147 611.011 298.56C612.878 299.973 613.811 302.093 613.811 304.92ZM610.091 304.96C610.091 302.96 609.505 301.507 608.331 300.6C607.185 299.667 605.611 299.2 603.611 299.2H599.611V311H603.491C605.571 311 607.185 310.547 608.331 309.64C609.505 308.733 610.091 307.173 610.091 304.96ZM627.756 318.8C627.756 320.693 628.916 321.64 631.236 321.64C632.329 321.64 633.502 321.4 634.756 320.92L635.636 323.36C634.302 324.08 632.636 324.44 630.636 324.44C628.742 324.44 627.222 323.92 626.076 322.88C624.956 321.84 624.396 320.427 624.396 318.64V297.12H617.916V294.44H627.756V318.8ZM658.62 319.4C658.62 320.227 658.753 320.84 659.02 321.24C659.287 321.613 659.727 321.893 660.34 322.08L659.5 324.48C657.447 324.213 656.167 323.213 655.66 321.48C654.913 322.44 653.967 323.173 652.82 323.68C651.7 324.187 650.447 324.44 649.06 324.44C646.953 324.44 645.287 323.853 644.06 322.68C642.86 321.507 642.26 319.933 642.26 317.96C642.26 315.8 643.1 314.133 644.78 312.96C646.487 311.787 648.927 311.2 652.1 311.2H655.22V309.48C655.22 307.987 654.793 306.92 653.94 306.28C653.087 305.613 651.847 305.28 650.22 305.28C648.62 305.28 646.793 305.64 644.74 306.36L643.82 303.8C646.3 302.92 648.607 302.48 650.74 302.48C653.3 302.48 655.247 303.08 656.58 304.28C657.94 305.48 658.62 307.147 658.62 309.28V319.4ZM649.9 321.92C650.94 321.92 651.927 321.653 652.86 321.12C653.82 320.587 654.607 319.853 655.22 318.92V313.52H652.18C649.94 313.52 648.327 313.893 647.34 314.64C646.353 315.387 645.86 316.48 645.86 317.92C645.86 320.587 647.207 321.92 649.9 321.92ZM677.644 324.12C676.818 326.547 675.684 328.48 674.244 329.92C672.804 331.36 670.791 332.213 668.204 332.48L667.724 329.8C669.138 329.56 670.258 329.187 671.084 328.68C671.938 328.2 672.604 327.587 673.084 326.84C673.564 326.12 674.004 325.173 674.404 324H673.284L665.964 302.92H669.524L675.564 321.44L681.524 302.92H685.004L677.644 324.12Z" fill="#575279"/>
<path d="M602.247 138H597.207L595.947 116.4C595.707 112.6 595.587 107.62 595.587 101.46L588.627 130.56H583.407L575.967 101.46C576.047 102.9 576.087 104.82 576.087 107.22C576.087 110.9 576.007 113.96 575.847 116.4L574.767 138H569.847L572.187 96.66H579.447L586.167 124.98L592.587 96.66H599.907L602.247 138ZM632.703 131.1C632.703 132.34 632.903 133.26 633.303 133.86C633.703 134.42 634.363 134.84 635.283 135.12L634.023 138.72C630.943 138.32 629.023 136.82 628.263 134.22C627.143 135.66 625.723 136.76 624.003 137.52C622.323 138.28 620.443 138.66 618.363 138.66C615.203 138.66 612.703 137.78 610.863 136.02C609.063 134.26 608.163 131.9 608.163 128.94C608.163 125.7 609.423 123.2 611.943 121.44C614.503 119.68 618.163 118.8 622.923 118.8H627.603V116.22C627.603 113.98 626.963 112.38 625.683 111.42C624.403 110.42 622.543 109.92 620.103 109.92C617.703 109.92 614.963 110.46 611.883 111.54L610.503 107.7C614.223 106.38 617.683 105.72 620.883 105.72C624.723 105.72 627.643 106.62 629.643 108.42C631.683 110.22 632.703 112.72 632.703 115.92V131.1ZM619.623 134.88C621.183 134.88 622.663 134.48 624.063 133.68C625.503 132.88 626.683 131.78 627.603 130.38V122.28H623.043C619.683 122.28 617.263 122.84 615.783 123.96C614.303 125.08 613.563 126.72 613.563 128.88C613.563 132.88 615.583 134.88 619.623 134.88ZM669.88 133.68L669.28 138H646.12V134.16L663.64 110.82H647.5V106.38H669.7V110.34L652.3 133.68H669.88ZM685.997 123.96C686.117 127.44 687.017 130.06 688.697 131.82C690.417 133.58 692.577 134.46 695.177 134.46C696.737 134.46 698.157 134.24 699.437 133.8C700.757 133.32 702.157 132.6 703.637 131.64L705.977 135C704.497 136.16 702.797 137.06 700.877 137.7C698.997 138.34 697.097 138.66 695.177 138.66C690.617 138.66 687.057 137.18 684.497 134.22C681.977 131.22 680.717 127.22 680.717 122.22C680.717 119.06 681.277 116.24 682.397 113.76C683.517 111.24 685.117 109.28 687.197 107.88C689.277 106.44 691.697 105.72 694.457 105.72C698.457 105.72 701.597 107.12 703.877 109.92C706.197 112.68 707.357 116.46 707.357 121.26C707.357 122.18 707.317 123.08 707.237 123.96H685.997ZM694.517 109.86C692.077 109.86 690.097 110.74 688.577 112.5C687.057 114.22 686.197 116.76 685.997 120.12H702.437C702.397 116.8 701.677 114.26 700.277 112.5C698.877 110.74 696.957 109.86 694.517 109.86ZM487.765 199.44L484.465 210H479.305L492.805 168.66H499.405L512.845 210H507.445L504.145 199.44H487.765ZM502.765 195.12L495.985 173.1L489.145 195.12H502.765ZM530.882 206.52C533.282 206.52 535.182 206.06 536.582 205.14C537.982 204.22 538.682 203 538.682 201.48C538.682 200.44 538.502 199.6 538.142 198.96C537.782 198.28 537.062 197.68 535.982 197.16C534.902 196.6 533.262 196.04 531.062 195.48C527.382 194.56 524.662 193.46 522.902 192.18C521.142 190.86 520.262 188.92 520.262 186.36C520.262 183.72 521.362 181.62 523.562 180.06C525.762 178.5 528.662 177.72 532.262 177.72C536.662 177.72 540.502 178.88 543.782 181.2L541.502 184.68C540.182 183.76 538.802 183.06 537.362 182.58C535.922 182.06 534.262 181.8 532.382 181.8C527.822 181.8 525.542 183.18 525.542 185.94C525.542 186.9 525.782 187.68 526.262 188.28C526.782 188.88 527.602 189.42 528.722 189.9C529.882 190.34 531.602 190.88 533.882 191.52C537.322 192.44 539.882 193.62 541.562 195.06C543.282 196.46 544.142 198.52 544.142 201.24C544.142 204.4 542.862 206.76 540.302 208.32C537.742 209.88 534.602 210.66 530.882 210.66C525.922 210.66 521.802 209.24 518.522 206.4L521.342 203.1C522.622 204.14 524.082 204.98 525.722 205.62C527.362 206.22 529.082 206.52 530.882 206.52ZM570.399 206.34C573.159 206.34 575.899 205.42 578.619 203.58L581.019 206.88C579.699 208.04 578.059 208.96 576.099 209.64C574.139 210.32 572.239 210.66 570.399 210.66C565.719 210.66 562.059 209.2 559.419 206.28C556.819 203.32 555.519 199.34 555.519 194.34C555.519 191.18 556.099 188.34 557.259 185.82C558.459 183.3 560.179 181.32 562.419 179.88C564.659 178.44 567.319 177.72 570.399 177.72C574.479 177.72 577.999 178.96 580.959 181.44L578.499 184.74C575.739 182.9 573.019 181.98 570.339 181.98C567.499 181.98 565.219 183.04 563.499 185.16C561.819 187.24 560.979 190.3 560.979 194.34C560.979 198.38 561.819 201.4 563.499 203.4C565.219 205.36 567.519 206.34 570.399 206.34ZM596.055 195.96C596.175 199.44 597.075 202.06 598.755 203.82C600.475 205.58 602.635 206.46 605.235 206.46C606.795 206.46 608.215 206.24 609.495 205.8C610.815 205.32 612.215 204.6 613.695 203.64L616.035 207C614.555 208.16 612.855 209.06 610.935 209.7C609.055 210.34 607.155 210.66 605.235 210.66C600.675 210.66 597.115 209.18 594.555 206.22C592.035 203.22 590.775 199.22 590.775 194.22C590.775 191.06 591.335 188.24 592.455 185.76C593.575 183.24 595.175 181.28 597.255 179.88C599.335 178.44 601.755 177.72 604.515 177.72C608.515 177.72 611.655 179.12 613.935 181.92C616.255 184.68 617.415 188.46 617.415 193.26C617.415 194.18 617.375 195.08 617.295 195.96H596.055ZM604.575 181.86C602.135 181.86 600.155 182.74 598.635 184.5C597.115 186.22 596.255 188.76 596.055 192.12H612.495C612.455 188.8 611.735 186.26 610.335 184.5C608.935 182.74 607.015 181.86 604.575 181.86ZM628.012 178.38H632.332L632.752 182.82C633.992 181.22 635.552 179.98 637.432 179.1C639.352 178.18 641.272 177.72 643.192 177.72C649.112 177.72 652.072 180.84 652.072 187.08V210H647.032V190.8C647.032 188.44 646.892 186.64 646.612 185.4C646.372 184.16 645.872 183.24 645.112 182.64C644.352 182.04 643.192 181.74 641.632 181.74C639.912 181.74 638.292 182.26 636.772 183.3C635.252 184.34 634.012 185.58 633.052 187.02V210H628.012V178.38ZM674.788 206.52C677.188 206.52 679.088 206.06 680.488 205.14C681.888 204.22 682.588 203 682.588 201.48C682.588 200.44 682.408 199.6 682.048 198.96C681.688 198.28 680.968 197.68 679.888 197.16C678.808 196.6 677.168 196.04 674.968 195.48C671.288 194.56 668.568 193.46 666.808 192.18C665.048 190.86 664.168 188.92 664.168 186.36C664.168 183.72 665.268 181.62 667.468 180.06C669.668 178.5 672.568 177.72 676.168 177.72C680.568 177.72 684.408 178.88 687.688 181.2L685.408 184.68C684.088 183.76 682.708 183.06 681.268 182.58C679.828 182.06 678.168 181.8 676.288 181.8C671.728 181.8 669.448 183.18 669.448 185.94C669.448 186.9 669.688 187.68 670.168 188.28C670.688 188.88 671.508 189.42 672.628 189.9C673.788 190.34 675.508 190.88 677.788 191.52C681.228 192.44 683.788 193.62 685.468 195.06C687.188 196.46 688.048 198.52 688.048 201.24C688.048 204.4 686.768 206.76 684.208 208.32C681.648 209.88 678.508 210.66 674.788 210.66C669.828 210.66 665.708 209.24 662.428 206.4L665.248 203.1C666.528 204.14 667.988 204.98 669.628 205.62C671.268 206.22 672.988 206.52 674.788 206.52ZM711.965 163.62C713.085 163.62 713.985 163.96 714.665 164.64C715.345 165.28 715.685 166.12 715.685 167.16C715.685 168.2 715.345 169.06 714.665 169.74C713.985 170.38 713.085 170.7 711.965 170.7C710.885 170.7 710.005 170.38 709.325 169.74C708.685 169.06 708.365 168.2 708.365 167.16C708.365 166.12 708.685 165.28 709.325 164.64C710.005 163.96 710.885 163.62 711.965 163.62ZM715.985 205.98H724.865V210H701.225V205.98H710.945V182.4H701.525V178.38H715.985V205.98ZM748.001 177.72C752.361 177.72 755.701 179.2 758.021 182.16C760.381 185.08 761.561 189.08 761.561 194.16C761.561 199.12 760.361 203.12 757.961 206.16C755.601 209.16 752.261 210.66 747.941 210.66C743.581 210.66 740.221 209.2 737.861 206.28C735.501 203.32 734.321 199.3 734.321 194.22C734.321 189.22 735.501 185.22 737.861 182.22C740.261 179.22 743.641 177.72 748.001 177.72ZM748.001 181.86C745.241 181.86 743.181 182.88 741.821 184.92C740.461 186.96 739.781 190.06 739.781 194.22C739.781 198.38 740.441 201.48 741.761 203.52C743.121 205.52 745.181 206.52 747.941 206.52C750.701 206.52 752.741 205.52 754.061 203.52C755.421 201.48 756.101 198.36 756.101 194.16C756.101 190 755.421 186.92 754.061 184.92C752.741 182.88 750.721 181.86 748.001 181.86ZM771.918 178.38H776.238L776.658 182.82C777.898 181.22 779.458 179.98 781.338 179.1C783.258 178.18 785.178 177.72 787.098 177.72C793.018 177.72 795.978 180.84 795.978 187.08V210H790.938V190.8C790.938 188.44 790.798 186.64 790.518 185.4C790.278 184.16 789.778 183.24 789.018 182.64C788.258 182.04 787.098 181.74 785.538 181.74C783.818 181.74 782.198 182.26 780.678 183.3C779.158 184.34 777.918 185.58 776.958 187.02V210H771.918V178.38Z" fill="#575279"/>
<defs>
<filter id="filter0_d_1_7" x="536" y="376" width="208" height="73" filterUnits="userSpaceOnUse" color-interpolation-filters="sRGB">
<feFlood flood-opacity="0" result="BackgroundImageFix"/>
<feColorMatrix in="SourceAlpha" type="matrix" values="0 0 0 0 0 0 0 0 0 0 0 0 0 0 0 0 0 0 127 0" result="hardAlpha"/>
<feOffset dy="4"/>
<feGaussianBlur stdDeviation="2"/>
<feComposite in2="hardAlpha" operator="out"/>
<feColorMatrix type="matrix" values="0 0 0 0 0 0 0 0 0 0 0 0 0 0 0 0 0 0 0.25 0"/>
<feBlend mode="normal" in2="BackgroundImageFix" result="effect1_dropShadow_1_7"/>
<feBlend mode="normal" in="SourceGraphic" in2="effect1_dropShadow_1_7" result="shape"/>
</filter>
<filter id="filter1_d_1_7" x="536" y="279" width="208" height="73" filterUnits="userSpaceOnUse" color-interpolation-filters="sRGB">
<feFlood flood-opacity="0" result="BackgroundImageFix"/>
<feColorMatrix in="SourceAlpha" type="matrix" values="0 0 0 0 0 0 0 0 0 0 0 0 0 0 0 0 0 0 127 0" result="hardAlpha"/>
<feOffset dy="4"/>
<feGaussianBlur stdDeviation="2"/>
<feComposite in2="hardAlpha" operator="out"/>
<feColorMatrix type="matrix" values="0 0 0 0 0 0 0 0 0 0 0 0 0 0 0 0 0 0 0.25 0"/>
<feBlend mode="normal" in2="BackgroundImageFix" result="effect1_dropShadow_1_7"/>
<feBlend mode="normal" in="SourceGraphic" in2="effect1_dropShadow_1_7" result="shape"/>
</filter>
</defs>
</svg>

